# xmcd CD database file
#
# Track frame offsets:
#	150
#	13692
#	26455
#	42855
#	55592
#	59415
#	71322
#	84927
#	101777
#	117680
#	133925
#	143775
#	161387
#	178177
#	196700
#	211117
#	222775
#	238207
#	253730
#	280952
#
# Disc length: 3905 seconds
#
# Revision: 0
# Processed by: cddbd v1.5.2PL0 Copyright (c) Steve Scherf et al.
# Submitted via: CDex 1.70beta2
#
DISCID=210f3f14
DTITLE=Various Artist - Django Festival - Gypsy Swing Today 5
DYEAR=2007
DGENRE=Jazz
TTITLE0=Gueri, Gueri (Opus 4)
TTITLE1=Sea Breeze (Aurélien Trigo and Criss Campion)
TTITLE2=Luna Music part 5 and 2 (Jon Larsen)
TTITLE3=Them There Eyes (Denis Chang)
TTITLE4=Impatience (Max Robin)
TTITLE5=Topsy (Dominique Carré)
TTITLE6=Djangology (Symphonic Django)
TTITLE7=Bohème Auberge (Nail Anderson)
TTITLE8=Djangology (Robin Katz)
TTITLE9=Llalol (Marin Jerciunica)
TTITLE10=Valse A Dora (Yorgui Loeffler and Ritary)
TTITLE11=No 19 (Pearl Django)
TTITLE12=For You (Hot Club De Norvège)
TTITLE13=Minor Swing (Gustav Lundgren)
TTITLE14=Swing For Rolf (Erich Nussbaum)
TTITLE15=Les Croquants (Havana Swing)
TTITLE16=Mire Pral (Swing Amor)
TTITLE17=The World Is Waiting For The Sunrise (Note Noir)
TTITLE18=Rhythm Futur (Hisao Fukushima)
TTITLE19=Dinah (Walter Clerigi& Popy Basily)
EXTD=YEAR: 2007
EXTT0=
EXTT1=
EXTT2=
EXTT3=
EXTT4=
EXTT5=
EXTT6=
EXTT7=
EXTT8=
EXTT9=
EXTT10=
EXTT11=
EXTT12=
EXTT13=
EXTT14=
EXTT15=
EXTT16=
EXTT17=
EXTT18=
EXTT19=
PLAYORDER=
